<svg xmlns="http://www.w3.org/2000/svg" viewBox="0 0 32 32" fill="none">
  <!-- Circular backing -->
  <circle cx="16" cy="16" r="15" fill="#060806" />
  <circle cx="16" cy="16" r="14" stroke="#70f255" stroke-width="1.5" stroke-opacity="0.3" />
  
  <!-- Goblin Silhouette (Pointed ears, mask-like shape) -->
  <path d="M6 12C9 14 11 15 13 16.5C11.5 18 10 20 10 22C12 21.5 14 20 16 21C18 20 20 21.5 22 22C22 20 20.5 18 19 16.5C21 15 23 14 26 12C23 12.5 21 13.5 19.5 14.5C18.5 12 17.5 10 16 10C14.5 10 13.5 12 12.5 14.5C11 13.5 9 12.5 6 12Z" fill="#70f255" />
  
  <!-- Eyes -->
  <path d="M12 16.5L14 17" stroke="#060806" stroke-width="1.5" stroke-linecap="round" />
  <path d="M20 16.5L18 17" stroke="#060806" stroke-width="1.5" stroke-linecap="round" />
  
  <!-- Glowing accent dot -->
  <circle cx="16" cy="25" r="1.5" fill="#70f255" />
</svg>
